<?xml version="1.0" encoding="UTF-8"?>
<svg version="1.1" xmlns="http://www.w3.org/2000/svg" width="32" height="32">
<path d="M0 0 C2.64 0 5.28 0 8 0 C6.93934702 3.00518345 5.80847571 5.26697326 3.9375 7.875 C1.71908094 11.45309526 1 13.79417136 1 18 C2.83358335 20.33454661 2.83358335 20.33454661 5 22 C5 22.66 5 23.32 5 24 C0.86770797 24.49193953 -0.69398383 24.2100111 -4.1875 21.8125 C-6.74141323 19.25858677 -8.56178687 17.29943011 -10 14 C-9.6875 11.6875 -9.6875 11.6875 -9 10 C-8.21625 9.938125 -7.4325 9.87625 -6.625 9.8125 C-5.325625 9.4103125 -5.325625 9.4103125 -4 9 C-2.72412505 6.6859613 -2.72412505 6.6859613 -2 4 C-1.34786461 2.65949948 -0.68620031 1.32338632 0 0 Z " fill="#F9EF22" transform="translate(19,4)"/>
<path d="M0 0 C2.64 0 5.28 0 8 0 C8 0.66 8 1.32 8 2 C5.36 2 2.72 2 0 2 C0 1.34 0 0.68 0 0 Z " fill="#F9F023" transform="translate(8,27)"/>
<path d="M0 0 C2.64 0 5.28 0 8 0 C8 0.66 8 1.32 8 2 C5.36 2 2.72 2 0 2 C0 1.34 0 0.68 0 0 Z " fill="#F9EF22" transform="translate(5,24)"/>
<path d="M0 0 C2.64 0 5.28 0 8 0 C8 0.66 8 1.32 8 2 C5.36 2 2.72 2 0 2 C0 1.34 0 0.68 0 0 Z " fill="#F9EF22" transform="translate(3,21)"/>
</svg>
